<?xml version="1.0" encoding="UTF-8"?>
<svg xmlns="http://www.w3.org/2000/svg" version="1.2" baseProfile="tiny-ps" viewBox="0 0 467 467">
<title>Waldron Guitar Academy</title>
<g transform="translate(0,467) scale(0.1,-0.1)" fill="#DCBA5A" stroke="none">
  <path d="M2145 4663 c-554 -48 -1069 -287 -1460 -678 -299 -300 -508 -666
-611 -1071 -55 -220 -69 -332 -69 -579 0 -247 14 -359 69 -579 103 -405 312
-771 611 -1071 355 -354 809 -584 1306 -660 131 -20 377 -30 491 -21 l86 8
-28 61 c-76 170 -213 555 -273 769 l-25 88 185 0 c166 0 184 -2 189 -17 48
-146 157 -248 279 -260 155 -16 307 115 346 298 15 71 6 191 -20 261 -90 238
-351 305 -511 132 -42 -46 -100 -154 -100 -187 0 -10 -5 -27 -10 -38 -10 -18
-23 -19 -199 -19 -139 0 -191 3 -199 13 -22 26 -97 435 -126 682 -24 202 -39
456 -29 466 5 5 131 8 293 7 l284 -3 11 -45 c27 -104 106 -207 192 -250 57
-28 157 -33 213 -11 141 58 230 205 230 380 0 129 -39 227 -122 308 -169 165
-420 85 -504 -161 l-16 -46 -296 0 -295 0 6 163 c8 198 22 348 48 532 20 142
75 430 85 446 3 5 101 9 218 9 l214 0 11 -46 c25 -98 94 -192 178 -241 59 -34
151 -42 222 -18 113 37 210 167 231 311 30 194 -75 398 -231 449 -163 54 -339
-53 -394 -240 l-12 -40 -184 -3 c-101 -1 -189 0 -195 2 -14 6 29 151 106 361
61 164 105 266 179 414 l59 118 -67 7 c-66 6 -292 6 -366 -1z"/>
</g>
<g transform="translate(0,467) scale(0.1,-0.1)" fill="#002842" stroke="none">
  <path d="M2509 4496 c-105 -218 -234 -558 -264 -693 l-7 -33 182 0 c163 0 181
2 186 18 19 56 70 145 104 181 95 97 228 124 342 68 232 -114 286 -468 102
-666 -70 -76 -133 -105 -229 -105 -57 0 -80 5 -123 27 -93 49 -159 132 -192
245 l-13 42 -207 0 -208 0 -36 -187 c-55 -284 -96 -665 -96 -890 l0 -63 285 0
285 0 6 28 c12 50 55 124 99 171 121 129 294 136 423 16 216 -200 160 -591
-100 -700 -53 -22 -162 -19 -216 5 -92 42 -194 171 -209 266 l-6 34 -284 0
-283 0 6 -97 c21 -356 63 -648 142 -1013 l8 -35 191 -3 191 -2 12 47 c40 160
162 278 299 290 103 9 197 -35 269 -126 163 -206 96 -547 -126 -649 -159 -73
-339 11 -418 193 l-28 65 -169 0 -169 0 7 -36 c21 -115 288 -863 313 -878 13
-8 206 25 336 58 405 103 771 312 1071 611 299 300 508 666 611 1071 55 220
69 332 69 579 0 247 -14 359 -69 579 -141 558 -491 1048 -974 1368 -293 193
-635 323 -966 366 l-69 9 -78 -161z"/>
</g>
</svg>
